<?xml version="1.0" encoding="UTF-8"?>
<!-- This file is generated by npm run build:icons -->
<svg xmlns="http://www.w3.org/2000/svg" xmlns:xlink="http://www.w3.org/1999/xlink" width="0" height="0">
<defs>
<symbol viewBox="0 0 24 24" fill="none" stroke="currentColor" stroke-width="2" stroke-linecap="round" stroke-linejoin="round" id="arrow-down-to-line">
  <path d="M12 17V3" ></path>
  <path d="m6 11 6 6 6-6" ></path>
  <path d="M19 21H5" ></path>
</symbol>
<symbol viewBox="0 0 24 24" fill="none" stroke="currentColor" stroke-width="2" stroke-linecap="round" stroke-linejoin="round" id="arrow-down">
  <path d="M12 5v14" ></path>
  <path d="m19 12-7 7-7-7" ></path>
</symbol>
<symbol viewBox="0 0 24 24" fill="none" stroke="currentColor" stroke-width="2" stroke-linecap="round" stroke-linejoin="round" id="arrow-left">
  <path d="m12 19-7-7 7-7" ></path>
  <path d="M19 12H5" ></path>
</symbol>
<symbol viewBox="0 0 24 24" fill="none" stroke="currentColor" stroke-width="2" stroke-linecap="round" stroke-linejoin="round" id="arrow-right">
  <path d="M5 12h14" ></path>
  <path d="m12 5 7 7-7 7" ></path>
</symbol>
<symbol viewBox="0 0 24 24" fill="none" stroke="currentColor" stroke-width="2" stroke-linecap="round" stroke-linejoin="round" id="arrow-up-down">
  <path d="m21 16-4 4-4-4" ></path>
  <path d="M17 20V4" ></path>
  <path d="m3 8 4-4 4 4" ></path>
  <path d="M7 4v16" ></path>
</symbol>
<symbol viewBox="0 0 24 24" fill="none" stroke="currentColor" stroke-width="2" stroke-linecap="round" stroke-linejoin="round" id="arrow-up-to-line">
  <path d="M5 3h14" ></path>
  <path d="m18 13-6-6-6 6" ></path>
  <path d="M12 7v14" ></path>
</symbol>
<symbol viewBox="0 0 24 24" fill="none" stroke="currentColor" stroke-width="2" stroke-linecap="round" stroke-linejoin="round" id="arrow-up">
  <path d="m5 12 7-7 7 7" ></path>
  <path d="M12 19V5" ></path>
</symbol>
<symbol viewBox="0 0 24 24" fill="none" stroke="currentColor" stroke-width="2" stroke-linecap="round" stroke-linejoin="round" id="camera">
  <path d="M14.5 4h-5L7 7H4a2 2 0 0 0-2 2v9a2 2 0 0 0 2 2h16a2 2 0 0 0 2-2V9a2 2 0 0 0-2-2h-3l-2.5-3z" ></path>
  <circle cx="12" cy="13" r="3" ></circle>
</symbol>
<symbol viewBox="0 0 24 24" fill="none" stroke="currentColor" stroke-width="2" stroke-linecap="round" stroke-linejoin="round" id="check">
  <path d="M20 6 9 17l-5-5" ></path>
</symbol>
<symbol viewBox="0 0 24 24" fill="none" stroke="currentColor" stroke-width="2" stroke-linecap="round" stroke-linejoin="round" id="chevron-left">
  <path d="m15 18-6-6 6-6" ></path>
</symbol>
<symbol viewBox="0 0 24 24" fill="none" stroke="currentColor" stroke-width="2" stroke-linecap="round" stroke-linejoin="round" id="chevron-right">
  <path d="m9 18 6-6-6-6" ></path>
</symbol>
<symbol viewBox="0 0 24 24" fill="none" stroke="currentColor" stroke-width="2" stroke-linecap="round" stroke-linejoin="round" id="chevrons-down">
  <path d="m7 6 5 5 5-5" ></path>
  <path d="m7 13 5 5 5-5" ></path>
</symbol>
<symbol viewBox="0 0 24 24" fill="none" stroke="currentColor" stroke-width="2" stroke-linecap="round" stroke-linejoin="round" id="chevrons-left">
  <path d="m11 17-5-5 5-5" ></path>
  <path d="m18 17-5-5 5-5" ></path>
</symbol>
<symbol viewBox="0 0 24 24" fill="none" stroke="currentColor" stroke-width="2" stroke-linecap="round" stroke-linejoin="round" id="chevrons-right">
  <path d="m6 17 5-5-5-5" ></path>
  <path d="m13 17 5-5-5-5" ></path>
</symbol>
<symbol viewBox="0 0 24 24" fill="none" stroke="currentColor" stroke-width="2" stroke-linecap="round" stroke-linejoin="round" id="chevrons-up">
  <path d="m17 11-5-5-5 5" ></path>
  <path d="m17 18-5-5-5 5" ></path>
</symbol>
<symbol viewBox="0 0 24 24" fill="none" stroke="currentColor" stroke-width="2" stroke-linecap="round" stroke-linejoin="round" id="circle-check-big">
  <path d="M21.801 10A10 10 0 1 1 17 3.335" ></path>
  <path d="m9 11 3 3L22 4" ></path>
</symbol>
<symbol viewBox="0 0 24 24" fill="none" stroke="currentColor" stroke-width="2" stroke-linecap="round" stroke-linejoin="round" id="circle-check">
  <circle cx="12" cy="12" r="10" ></circle>
  <path d="m9 12 2 2 4-4" ></path>
</symbol>
<symbol viewBox="0 0 24 24" fill="none" stroke="currentColor" stroke-width="2" stroke-linecap="round" stroke-linejoin="round" id="circle-user-round">
  <path d="M18 20a6 6 0 0 0-12 0" ></path>
  <circle cx="12" cy="10" r="4" ></circle>
  <circle cx="12" cy="12" r="10" ></circle>
</symbol>
<symbol viewBox="0 0 24 24" fill="none" stroke="currentColor" stroke-width="2" stroke-linecap="round" stroke-linejoin="round" id="ellipsis-vertical">
  <circle cx="12" cy="12" r="1" ></circle>
  <circle cx="12" cy="5" r="1" ></circle>
  <circle cx="12" cy="19" r="1" ></circle>
</symbol>
<symbol viewBox="0 0 24 24" fill="none" stroke="currentColor" stroke-width="2" stroke-linecap="round" stroke-linejoin="round" id="ellipsis">
  <circle cx="12" cy="12" r="1" ></circle>
  <circle cx="19" cy="12" r="1" ></circle>
  <circle cx="5" cy="12" r="1" ></circle>
</symbol>
<symbol viewBox="0 0 24 24" fill="none" stroke="currentColor" stroke-width="2" stroke-linecap="round" stroke-linejoin="round" id="eye-off">
  <path d="M10.733 5.076a10.744 10.744 0 0 1 11.205 6.575 1 1 0 0 1 0 .696 10.747 10.747 0 0 1-1.444 2.49" ></path>
  <path d="M14.084 14.158a3 3 0 0 1-4.242-4.242" ></path>
  <path d="M17.479 17.499a10.75 10.75 0 0 1-15.417-5.151 1 1 0 0 1 0-.696 10.75 10.75 0 0 1 4.446-5.143" ></path>
  <path d="m2 2 20 20" ></path>
</symbol>
<symbol viewBox="0 0 24 24" fill="none" stroke="currentColor" stroke-width="2" stroke-linecap="round" stroke-linejoin="round" id="eye">
  <path d="M2.062 12.348a1 1 0 0 1 0-.696 10.75 10.75 0 0 1 19.876 0 1 1 0 0 1 0 .696 10.75 10.75 0 0 1-19.876 0" ></path>
  <circle cx="12" cy="12" r="3" ></circle>
</symbol>
<symbol viewBox="0 0 24 24" fill="none" stroke="currentColor" stroke-width="2" stroke-linecap="round" stroke-linejoin="round" id="id-card">
  <path d="M16 10h2" ></path>
  <path d="M16 14h2" ></path>
  <path d="M6.17 15a3 3 0 0 1 5.66 0" ></path>
  <circle cx="9" cy="11" r="2" ></circle>
  <rect x="2" y="5" width="20" height="14" rx="2" ></rect>
</symbol>
<symbol viewBox="0 0 24 24" fill="none" stroke="currentColor" stroke-width="2" stroke-linecap="round" stroke-linejoin="round" id="image">
  <rect width="18" height="18" x="3" y="3" rx="2" ry="2" ></rect>
  <circle cx="9" cy="9" r="2" ></circle>
  <path d="m21 15-3.086-3.086a2 2 0 0 0-2.828 0L6 21" ></path>
</symbol>
<symbol viewBox="0 0 24 24" fill="none" stroke="currentColor" stroke-width="2" stroke-linecap="round" stroke-linejoin="round" id="key-round">
  <path d="M2.586 17.414A2 2 0 0 0 2 18.828V21a1 1 0 0 0 1 1h3a1 1 0 0 0 1-1v-1a1 1 0 0 1 1-1h1a1 1 0 0 0 1-1v-1a1 1 0 0 1 1-1h.172a2 2 0 0 0 1.414-.586l.814-.814a6.5 6.5 0 1 0-4-4z" ></path>
  <circle cx="16.5" cy="7.5" r=".5" fill="currentColor" ></circle>
</symbol>
<symbol viewBox="0 0 24 24" fill="none" stroke="currentColor" stroke-width="2" stroke-linecap="round" stroke-linejoin="round" id="loader-circle">
  <path d="M21 12a9 9 0 1 1-6.219-8.56" ></path>
</symbol>
<symbol viewBox="0 0 24 24" fill="none" stroke="currentColor" stroke-width="2" stroke-linecap="round" stroke-linejoin="round" id="minus">
  <path d="M5 12h14" ></path>
</symbol>
<symbol viewBox="0 0 24 24" fill="none" stroke="currentColor" stroke-width="2" stroke-linecap="round" stroke-linejoin="round" id="pencil">
  <path d="M21.174 6.812a1 1 0 0 0-3.986-3.987L3.842 16.174a2 2 0 0 0-.5.83l-1.321 4.352a.5.5 0 0 0 .623.622l4.353-1.32a2 2 0 0 0 .83-.497z" ></path>
  <path d="m15 5 4 4" ></path>
</symbol>
<symbol viewBox="0 0 24 24" fill="none" stroke="currentColor" stroke-width="2" stroke-linecap="round" stroke-linejoin="round" id="plus">
  <path d="M5 12h14" ></path>
  <path d="M12 5v14" ></path>
</symbol>
<symbol viewBox="0 0 24 24" fill="none" stroke="currentColor" stroke-width="2" stroke-linecap="round" stroke-linejoin="round" id="trash-2">
  <path d="M3 6h18" ></path>
  <path d="M19 6v14c0 1-1 2-2 2H7c-1 0-2-1-2-2V6" ></path>
  <path d="M8 6V4c0-1 1-2 2-2h4c1 0 2 1 2 2v2" ></path>
  <line x1="10" x2="10" y1="11" y2="17" ></line>
  <line x1="14" x2="14" y1="11" y2="17" ></line>
</symbol>
<symbol viewBox="0 0 24 24" fill="none" stroke="currentColor" stroke-width="2" stroke-linecap="round" stroke-linejoin="round" id="x">
  <path d="M18 6 6 18" ></path>
  <path d="m6 6 12 12" ></path>
</symbol>
</defs>
</svg>
